<svg width="50" height="50" viewBox="0 0 50 50" fill="none" xmlns="http://www.w3.org/2000/svg">
<path d="M6.92419 6.60685C6.92419 6.04627 6.92419 5.4857 6.92419 4.92513C6.92419 4.25445 6.91369 3.6238 7.26019 3.01318C7.81669 2.02217 8.84569 1.53167 10.0007 1.52166C11.3762 1.52166 12.7622 1.52166 14.1377 1.52166C19.9232 1.52166 25.7087 1.52166 31.4942 1.52166C35.9987 1.52166 40.4927 1.52166 44.9972 1.52166C45.5327 1.52166 46.0472 1.51165 46.5722 1.70184C47.7587 2.13228 48.4412 3.21338 48.4412 4.39459C48.4517 5.47569 48.4412 6.54678 48.4412 7.62789C48.4412 12.7031 48.4412 17.7782 48.4412 22.8634C48.4412 28.4291 48.4412 33.9948 48.4412 39.5605C48.4412 41.2422 48.4412 42.9139 48.4412 44.5956C48.4412 44.946 48.4412 45.2963 48.4412 45.6467C48.4307 46.918 47.6117 48.0491 46.2992 48.3995C45.8477 48.5196 45.3962 48.4996 44.9342 48.4996C44.2727 48.4996 43.6112 48.4996 42.9392 48.4996C40.5557 48.4996 38.1827 48.4996 35.7992 48.4996C29.7407 48.4996 23.6822 48.4996 17.6237 48.4996C15.5342 48.4996 13.4447 48.4996 11.3447 48.4996C10.8827 48.4996 10.4207 48.4996 9.94819 48.4996C8.71969 48.4996 7.59619 47.889 7.11319 46.7778C6.87169 46.2072 6.90319 45.6066 6.90319 45.006C6.90319 44.4755 6.90319 43.9449 6.90319 43.4144C6.90319 42.4434 5.32819 42.4434 5.32819 43.4144C5.32819 44.7257 5.14969 46.1772 5.69569 47.4085C6.40969 49.0001 8.05819 49.9711 9.85369 49.9911C11.1032 50.0111 12.3422 49.9911 13.5917 49.9911C19.4612 49.9911 25.3307 49.9911 31.2107 49.9911C35.8202 49.9911 40.4192 49.9911 45.0287 49.9911C45.7322 49.9911 46.4252 49.9611 47.0972 49.7108C48.8612 49.0602 49.9742 47.4685 49.9952 45.6767C50.0057 44.6957 49.9952 43.7047 49.9952 42.7237C49.9952 37.5684 49.9952 32.4132 49.9952 27.2579C49.9952 21.5621 49.9952 15.8663 49.9952 10.1705C49.9952 8.50879 49.9952 6.8571 49.9952 5.19541C49.9952 4.90511 49.9952 4.61481 49.9952 4.33453C49.9637 2.46262 48.7247 0.790913 46.8347 0.230341C45.6377 -0.130026 44.1572 0.040147 42.9182 0.040147C40.5032 0.040147 38.0987 0.040147 35.6837 0.040147C29.4782 0.040147 23.2832 0.040147 17.0777 0.040147C15.0407 0.040147 13.0037 0.040147 10.9562 0.040147C10.5782 0.040147 10.2002 0.0301368 9.83269 0.040147C7.94269 0.040147 6.24169 1.1713 5.59069 2.90307C5.17069 4.04423 5.34919 5.41563 5.34919 6.59683C5.34919 7.56783 6.92419 7.56783 6.92419 6.60685Z" fill="#056839"/>
<path d="M6.92461 37.9186C6.92461 35.0056 6.92461 32.0827 6.92461 29.1697C6.92461 24.5249 6.92461 19.8802 6.92461 15.2455C6.92461 14.1844 6.92461 13.1233 6.92461 12.0622C6.92461 11.0912 5.34961 11.0912 5.34961 12.0622C5.34961 14.9752 5.34961 17.8982 5.34961 20.8112C5.34961 25.4559 5.34961 30.1006 5.34961 34.7354C5.34961 35.7964 5.34961 36.8575 5.34961 37.9186C5.34961 38.8896 6.92461 38.8896 6.92461 37.9186Z" fill="#056839"/>
<path d="M9.24519 11.3216C7.86969 11.3216 6.48369 11.3216 5.1082 11.3216C4.5832 11.3216 4.0477 11.3316 3.5227 11.3216C2.4517 11.3016 1.6222 10.5108 1.6012 9.48972C1.5802 8.52874 2.0317 7.62782 3.1027 7.39758C3.5962 7.28747 4.1632 7.35754 4.6672 7.35754C6.16869 7.35754 7.68069 7.34753 9.18219 7.35754C10.2322 7.36755 11.1352 8.08829 11.1667 9.11934C11.1982 10.2605 10.5577 11.2815 9.24519 11.3216C8.23719 11.3516 8.22669 12.8531 9.24519 12.8231C10.8202 12.7831 12.2587 11.7921 12.6367 10.2905C12.9727 8.96919 12.5947 7.48768 11.4607 6.61679C10.6627 5.99615 9.73869 5.85601 8.74119 5.85601C7.76469 5.85601 6.78819 5.85601 5.80119 5.85601C5.0452 5.85601 4.2997 5.846 3.5437 5.85601C2.1472 5.87603 0.866198 6.61679 0.309698 7.85805C-0.257301 9.10933 -0.0368014 10.6709 0.897698 11.702C1.6327 12.5128 2.6932 12.8131 3.7852 12.8131C5.60169 12.8131 7.41819 12.8131 9.23469 12.8131C10.2532 12.8231 10.2532 11.3216 9.24519 11.3216ZM9.24519 42.6335C7.86969 42.6335 6.48369 42.6335 5.1082 42.6335C4.5832 42.6335 4.0477 42.6435 3.5227 42.6335C2.4517 42.6135 1.6222 41.8227 1.6012 40.8017C1.5802 39.8407 2.0317 38.9398 3.1027 38.7095C3.5962 38.5994 4.1632 38.6695 4.6672 38.6695C6.16869 38.6695 7.68069 38.6595 9.18219 38.6695C10.2322 38.6795 11.1352 39.4002 11.1667 40.4313C11.1982 41.5825 10.5577 42.6035 9.24519 42.6335C8.23719 42.6636 8.22669 44.1651 9.24519 44.1351C10.8202 44.095 12.2587 43.104 12.6367 41.6025C12.9727 40.2811 12.5947 38.7996 11.4607 37.9287C10.6627 37.3081 9.73869 37.1679 8.74119 37.1679C7.76469 37.1679 6.78819 37.1679 5.80119 37.1679C5.0452 37.1679 4.2997 37.1579 3.5437 37.1679C2.1472 37.198 0.866198 37.9287 0.309698 39.17C-0.257301 40.4213 -0.0368014 41.9829 0.897698 43.0139C1.6327 43.8247 2.6932 44.125 3.7852 44.125C5.60169 44.125 7.41819 44.125 9.23469 44.125C10.2532 44.1351 10.2532 42.6335 9.24519 42.6335Z" fill="#056839"/>
<path d="M14.7153 4.51486C14.7153 5.87625 14.7153 7.23764 14.7153 8.59903C14.7153 11.8624 14.7153 15.1357 14.7153 18.399C14.7153 22.333 14.7153 26.2671 14.7153 30.2011C14.7153 33.6145 14.7153 37.028 14.7153 40.4415C14.7153 42.0932 14.6418 43.7549 14.7153 45.4066C14.7153 45.4266 14.7153 45.4566 14.7153 45.4767C14.7153 46.4476 16.2903 46.4476 16.2903 45.4767C16.2903 44.1153 16.2903 42.7539 16.2903 41.3925C16.2903 38.1292 16.2903 34.8558 16.2903 31.5925C16.2903 27.6585 16.2903 23.7245 16.2903 19.7904C16.2903 16.377 16.2903 12.9635 16.2903 9.55C16.2903 7.89831 16.3638 6.23662 16.2903 4.58494C16.2903 4.56491 16.2903 4.53488 16.2903 4.51486C16.2903 3.54387 14.7153 3.54387 14.7153 4.51486Z" fill="#056839"/>
<path d="M21.0578 8.19831C23.5883 8.19831 26.1083 8.19831 28.6387 8.19831C32.6707 8.19831 36.7027 8.19831 40.7452 8.19831C41.6797 8.19831 42.6142 8.19831 43.5382 8.19831C44.5567 8.19831 44.5567 6.69678 43.5382 6.69678C41.0077 6.69678 38.4877 6.69678 35.9572 6.69678C31.9252 6.69678 27.8932 6.69678 23.8508 6.69678C22.9163 6.69678 21.9818 6.69678 21.0578 6.69678C20.0498 6.69678 20.0498 8.19831 21.0578 8.19831ZM21.0578 13.2635C23.5883 13.2635 26.1083 13.2635 28.6387 13.2635C32.6707 13.2635 36.7027 13.2635 40.7452 13.2635C41.6797 13.2635 42.6142 13.2635 43.5382 13.2635C44.5567 13.2635 44.5567 11.7619 43.5382 11.7619C41.0077 11.7619 38.4877 11.7619 35.9572 11.7619C31.9252 11.7619 27.8932 11.7619 23.8508 11.7619C22.9163 11.7619 21.9818 11.7619 21.0578 11.7619C20.0498 11.7619 20.0498 13.2635 21.0578 13.2635ZM21.0578 18.3286C23.5883 18.3286 26.1083 18.3286 28.6387 18.3286C32.6707 18.3286 36.7027 18.3286 40.7452 18.3286C41.6797 18.3286 42.6142 18.3286 43.5382 18.3286C44.5567 18.3286 44.5567 16.8271 43.5382 16.8271C41.0077 16.8271 38.4877 16.8271 35.9572 16.8271C31.9252 16.8271 27.8932 16.8271 23.8508 16.8271C22.9163 16.8271 21.9818 16.8271 21.0578 16.8271C20.0498 16.8271 20.0498 18.3286 21.0578 18.3286Z" fill="#056839"/>
<path d="M21.0578 26.7174C23.5883 26.7174 26.1083 26.7174 28.6387 26.7174C32.6707 26.7174 36.7027 26.7174 40.7452 26.7174C41.6797 26.7174 42.6142 26.7174 43.5382 26.7174C44.5567 26.7174 44.5567 25.2158 43.5382 25.2158C41.0077 25.2158 38.4877 25.2158 35.9572 25.2158C31.9252 25.2158 27.8932 25.2158 23.8508 25.2158C22.9163 25.2158 21.9818 25.2158 21.0578 25.2158C20.0498 25.2158 20.0498 26.7174 21.0578 26.7174ZM21.0578 31.7825C23.5883 31.7825 26.1083 31.7825 28.6387 31.7825C32.6707 31.7825 36.7027 31.7825 40.7452 31.7825C41.6797 31.7825 42.6142 31.7825 43.5382 31.7825C44.5567 31.7825 44.5567 30.281 43.5382 30.281C41.0077 30.281 38.4877 30.281 35.9572 30.281C31.9252 30.281 27.8932 30.281 23.8508 30.281C22.9163 30.281 21.9818 30.281 21.0578 30.281C20.0498 30.281 20.0498 31.7825 21.0578 31.7825ZM21.0578 36.8477C23.5883 36.8477 26.1083 36.8477 28.6387 36.8477C32.6707 36.8477 36.7027 36.8477 40.7452 36.8477C41.6797 36.8477 42.6142 36.8477 43.5382 36.8477C44.5567 36.8477 44.5567 35.3461 43.5382 35.3461C41.0077 35.3461 38.4877 35.3461 35.9572 35.3461C31.9252 35.3461 27.8932 35.3461 23.8508 35.3461C22.9163 35.3461 21.9818 35.3461 21.0578 35.3461C20.0498 35.3461 20.0498 36.8477 21.0578 36.8477Z" fill="#056839"/>
</svg>
