<svg width="50" height="50" viewBox="0 0 50 50" fill="none" xmlns="http://www.w3.org/2000/svg">
<path d="M49 15.8108L37 1.21622C36.3889 0.472973 35.5556 0 34.6667 0H15.3889C14.5 0 13.6667 0.405406 13.0556 1.21622L1 15.8108C0.333333 16.5541 0 17.6351 0 18.7162V18.9189C0 20.9459 1.22222 22.5676 2.77778 22.9054V45.9459C2.77778 48.1757 4.27778 50 6.11111 50H20.5556H29.4444H43.8889C45.7222 50 47.2222 48.1757 47.2222 45.9459V22.9054C48.7778 22.5676 50 20.9459 50 18.9189V18.7162C50 17.6351 49.6667 16.5541 49 15.8108ZM21.6667 47.2973V29.7297H28.3333V47.2973H21.6667ZM45 45.9459C45 46.6892 44.5 47.2973 43.8889 47.2973H30.5556V28.3784C30.5556 27.6351 30.0556 27.027 29.4444 27.027H20.5556C19.9444 27.027 19.4444 27.6351 19.4444 28.3784V47.2973H6.11111C5.5 47.2973 5 46.6892 5 45.9459V22.973H45V45.9459ZM47.7778 18.9189C47.7778 19.6622 47.2778 20.2703 46.6667 20.2703H46.1111H3.88889H3.33333C2.72222 20.2703 2.22222 19.6622 2.22222 18.9189V18.7162C2.22222 18.3784 2.33333 18.0405 2.55556 17.7703L14.6111 3.10811C14.8333 2.83784 15.1111 2.7027 15.3889 2.7027H34.6667C34.9444 2.7027 35.2222 2.83784 35.4444 3.10811L47.5 17.7703C47.7222 18.0405 47.8333 18.3784 47.8333 18.7162V18.9189H47.7778ZM35 36.4865H40.5556C41.1667 36.4865 41.6667 35.8784 41.6667 35.1351V28.3784C41.6667 27.6351 41.1667 27.027 40.5556 27.027H35C34.3889 27.027 33.8889 27.6351 33.8889 28.3784V35.1351C33.8889 35.8784 34.3889 36.4865 35 36.4865ZM36.1111 29.7297H39.4444V33.7838H36.1111V29.7297ZM9.44444 36.4865H15C15.6111 36.4865 16.1111 35.8784 16.1111 35.1351V28.3784C16.1111 27.6351 15.6111 27.027 15 27.027H9.44444C8.83333 27.027 8.33333 27.6351 8.33333 28.3784V35.1351C8.33333 35.8784 8.83333 36.4865 9.44444 36.4865ZM10.5556 29.7297H13.8889V33.7838H10.5556V29.7297Z" fill="#056839"/>
</svg>
