<svg width="50" height="50" viewBox="0 0 50 50" fill="none" xmlns="http://www.w3.org/2000/svg">
<path d="M21.3161 46.4286H50V50H0V46.4286H14.3964L15.6482 26.4018C16.3482 26.6304 17.0821 26.7857 17.8571 26.7857C18.6321 26.7857 19.3661 26.6304 20.0661 26.4018L21.3161 46.4286ZM25.6411 27.8268C24.1768 27.0482 23.0804 26.1554 22.2161 25.2643C23.7804 24.05 24.8125 22.2125 24.9518 20.1143C26.1732 20.3321 27.5286 20.7411 28.9929 21.5196C34.4786 24.4357 35.2 28.8643 35.2 28.8643C35.2 28.8643 31.1268 30.7429 25.6411 27.8268ZM14.9357 13.1375C14.5571 11.9607 14.2857 10.5786 14.2857 8.92857C14.2857 2.71607 17.8571 0 17.8571 0C17.8571 0 21.4286 2.71607 21.4286 8.92857C21.4286 10.5786 21.1571 11.9607 20.7786 13.1375C19.8857 12.7357 18.9 12.5 17.8571 12.5C16.8143 12.5 15.8286 12.7357 14.9357 13.1375ZM14.2857 19.6429C14.2857 17.6696 15.8839 16.0714 17.8571 16.0714C19.8304 16.0714 21.4286 17.6696 21.4286 19.6429C21.4286 21.6161 19.8304 23.2143 17.8571 23.2143C15.8839 23.2143 14.2857 21.6161 14.2857 19.6429ZM41.0714 14.2857H50V17.8571H41.0714C40.0857 17.8571 39.2857 18.6589 39.2857 19.6429C39.2857 20.6268 40.0857 21.4286 41.0714 21.4286C42.0589 21.4286 42.8571 22.2286 42.8571 23.2143C42.8571 24.2 42.0589 25 41.0714 25C38.1179 25 35.7143 22.5964 35.7143 19.6429C35.7143 16.6893 38.1179 14.2857 41.0714 14.2857ZM50 7.14286V10.7143H35.7143C32.7607 10.7143 30.3571 8.31071 30.3571 5.35714C30.3571 2.40357 32.7607 0 35.7143 0C36.7018 0 37.5 0.8 37.5 1.78571C37.5 2.77143 36.7018 3.57143 35.7143 3.57143C34.7286 3.57143 33.9286 4.37321 33.9286 5.35714C33.9286 6.34107 34.7286 7.14286 35.7143 7.14286H50ZM0.514286 28.8643C0.514286 28.8643 1.23571 24.4357 6.72143 21.5196C8.18571 20.7411 9.54107 20.3321 10.7625 20.1143C10.9018 22.2125 11.9339 24.05 13.4982 25.2643C12.6339 26.1536 11.5375 27.0482 10.0732 27.8268C4.5875 30.7429 0.514286 28.8643 0.514286 28.8643Z" fill="#056839"/>
</svg>
