<svg width="380" height="196" viewBox="0 0 380 196" fill="none" xmlns="http://www.w3.org/2000/svg">
<g opacity="0.5">
<g clip-path="url(#clip0)">
<path fill-rule="evenodd" clip-rule="evenodd" d="M379.117 75.1162H380V75.9999C379.411 76.589 379.117 77.1782 379.117 77.7673C378.528 77.7673 377.349 78.0619 375.582 78.6511H372.047C372.047 78.0619 369.101 75.9999 363.21 72.465C357.318 68.341 352.016 65.1007 347.303 62.7441C342 60.9767 337.288 58.9147 333.163 56.5581C329.039 54.2015 324.621 51.2557 319.907 47.7209C314.605 44.186 310.187 41.8294 306.652 40.6511C302.528 39.4728 299.287 37.1162 296.931 33.5814L293.396 28.279V27.3953H292.512V26.5116H291.628V25.6279H290.745V24.7442H288.977V23.8604H288.094V22.9767H287.21L288.094 31.8139C288.683 37.1162 289.566 40.3566 290.745 41.5348C292.512 42.124 294.574 43.0077 296.931 44.186C299.876 45.3643 301.939 47.4263 303.117 50.372C304.884 53.3177 306.652 55.0852 308.419 55.6743C309.597 56.2635 310.481 56.5581 311.07 56.5581H311.954L312.838 57.4418L313.721 58.3255H314.605V59.2092H315.489V60.0929H313.721L310.187 60.9767C307.83 61.5658 305.768 61.8604 304.001 61.8604C302.233 61.8604 298.993 62.155 294.28 62.7441L288.094 63.6278L287.21 62.7441L286.326 61.8604H285.442V60.0929C285.442 58.9147 286.326 57.7363 288.094 56.5581L290.745 54.7906V53.0232H289.861L288.977 52.1395C288.388 51.5503 286.621 50.6666 283.675 49.4883C280.729 48.31 278.667 45.0697 277.489 39.7674L274.838 32.6976V31.8139H273.954L273.07 30.9302H271.303V32.6976L270.419 33.5814L269.535 35.3488L265.117 51.2557C262.171 62.4498 258.342 71.287 253.628 77.7673C249.504 83.6588 245.38 89.8451 241.256 96.3255C237.722 102.217 235.365 106.636 234.187 109.581C233.008 111.938 232.419 114 232.419 115.767V118.418L231.536 119.302L230.652 120.186H228.884V115.767C228.884 112.822 230.063 108.403 232.419 102.511C234.776 96.0309 238.016 89.55 242.14 83.0697C246.264 76.5891 249.504 70.1081 251.861 63.6278L255.396 53.0232V47.7209H250.094L249.21 48.6046L248.326 49.4883H247.442V50.372H246.559L243.908 56.5581C242.14 60.6821 238.9 68.9301 234.187 81.3022C229.474 93.6743 223.876 105.752 217.396 117.535C210.915 128.729 204.14 138.45 197.07 146.697C190.59 153.767 184.698 159.07 179.396 162.604C174.094 166.139 168.202 169.085 161.722 171.442C155.83 173.798 152.59 175.271 152.001 175.86L151.117 176.744H149.35V177.628H148.466V178.511H145.815V179.395V176.744H146.698V175.86H147.582V174.977H148.466V174.093H149.35V173.209H150.233V172.325C150.822 172.325 156.714 168.496 167.908 160.837C179.69 152.589 187.055 146.992 190.001 144.046C193.536 141.101 197.66 135.504 202.373 127.256C207.086 119.008 211.21 111.349 214.745 104.279C217.101 97.7984 216.218 92.2011 212.094 87.4883C207.381 82.1859 203.551 79.5348 200.605 79.5348C198.249 79.5348 195.598 80.1239 192.652 81.3022C189.706 82.4805 187.35 84.8371 185.582 88.372C183.815 91.9069 180.574 101.333 175.861 116.651L168.791 138.744L167.908 139.628L167.024 141.395V144.046H166.14V144.93H165.257V141.395L166.14 138.744L167.024 136.093V133.442H166.14V134.325H165.257V135.209L164.373 136.093L163.489 136.977V137.86H162.605V138.744H161.722L158.187 144.046C155.241 148.17 153.768 150.232 153.768 150.232H152.884V151.116H152.001V152H148.466L147.582 152.884L146.698 153.767H144.931V152.884H145.815V151.116H146.698V150.232H147.582V148.465L148.466 147.581C149.055 146.992 152.001 141.69 157.303 131.674C162.605 121.659 165.846 114.884 167.024 111.349L168.791 106.93V103.395H167.908V102.511H166.14V103.395H165.257V105.163H164.373V106.046H163.489V107.814L147.582 136.093C136.977 154.945 131.086 165.256 129.908 167.023L128.14 169.674V170.558H127.257V171.442H126.373V173.209H125.489V174.093H124.605V175.86H123.722V176.744L119.303 180.279L114.001 185.581H113.117V186.465H112.233V187.349H111.35V188.232H110.466V189.116H109.582L108.698 190L107.815 190.883H106.931L106.047 191.767H105.164V190H106.931V188.232L107.815 187.349L108.698 186.465V185.581H109.582V184.697C110.171 184.697 112.233 182.046 115.768 176.744C119.303 170.852 123.722 162.604 129.024 152L136.977 136.977L137.861 136.093L138.745 135.209V133.442H139.629V132.558H140.512V131.674C140.512 131.085 144.636 122.543 152.884 106.046C161.132 89.55 166.14 80.1242 167.908 77.7673C170.264 75.4107 172.326 74.2325 174.094 74.2325C176.45 74.2325 178.512 72.7596 180.28 69.8139C182.047 67.4573 184.698 63.6278 188.233 58.3255C191.768 53.0232 194.125 49.7829 195.303 48.6046L197.954 47.7209H199.722L202.373 48.6046C203.551 49.7829 206.497 53.3177 211.21 59.2092C214.745 65.1007 217.101 68.9301 218.28 70.6976C219.458 71.8758 220.342 72.465 220.931 72.465H221.815V73.3487L222.698 74.2325L223.582 75.1162V75.9999H227.117V73.3487L233.303 60.0929C237.427 51.2557 240.667 45.364 243.024 42.4185C245.97 40.0619 248.915 37.4108 251.861 34.4651C255.396 31.5194 260.109 25.9224 266.001 17.6744C271.892 9.42637 275.427 4.71288 276.605 3.53488C278.373 2.35662 280.729 1.17826 283.675 0C286.621 0 290.156 1.4729 294.28 4.4186C297.814 7.3643 301.939 10.6046 306.652 14.1395C310.187 18.2636 314.016 22.9767 318.14 28.279C322.264 34.1705 326.388 38.8837 330.512 42.4185C335.225 45.9534 342.295 50.6666 351.721 56.5581C361.148 62.4496 367.923 66.5733 372.047 68.9301C375.582 72.465 377.644 74.2325 378.233 74.2325C378.822 74.2325 379.117 74.527 379.117 75.1162Z" fill="#82B39C"/>
<path d="M319.394 109.742C318.651 110.113 318.032 110.732 317.414 111.351C316.176 110.361 314.567 108.628 313.205 105.657C309.492 98.3552 304.542 84.8646 306.274 83.9982C308.007 83.1319 316.052 95.0135 319.765 102.316C321.127 105.162 321.869 107.266 321.869 109.123C320.879 109.123 320.136 109.37 319.394 109.742Z" fill="#82B39C"/>
<path d="M333.751 111.474C341.919 111.969 356.029 114.197 355.905 116.301C355.781 118.529 341.548 119.148 333.379 118.9C330.161 118.653 328.057 118.034 326.448 117.291C327.315 115.93 327.439 114.073 326.696 112.465C328.181 111.722 330.409 111.351 333.751 111.474Z" fill="#82B39C"/>
<path d="M321.746 117.91C319.9 117.91 318.404 116.414 318.404 114.568C318.404 112.723 319.9 111.227 321.746 111.227C323.592 111.227 325.088 112.723 325.088 114.568C325.088 116.414 323.592 117.91 321.746 117.91Z" fill="#82B39C"/>
<path d="M353.677 91.7952L322.983 92.5378C322.983 92.5378 322.983 92.5378 322.859 92.5378C322.116 92.5378 321.621 91.919 321.621 91.3002C321.621 90.6813 322.24 90.0625 322.859 90.0625L353.553 90.8051C353.801 90.8051 354.048 91.0526 354.048 91.3002C354.172 91.5477 353.924 91.7952 353.677 91.7952Z" fill="#82B39C"/>
<path d="M358.752 96.9937L328.058 97.7363C328.058 97.7363 328.058 97.7363 327.934 97.7363C327.191 97.7363 326.696 97.1175 326.696 96.4987C326.696 95.8798 327.315 95.261 327.934 95.261L358.628 96.0036C358.876 96.0036 359.123 96.2511 359.123 96.4987C359.371 96.7462 359 96.9937 358.752 96.9937Z" fill="#82B39C"/>
<path d="M363.95 102.069L333.256 102.811C332.513 102.811 332.018 102.192 332.018 101.574C332.018 100.955 332.637 100.336 333.256 100.336L363.95 101.079C364.198 101.079 364.445 101.326 364.445 101.574C364.445 101.821 364.198 102.069 363.95 102.069Z" fill="#82B39C"/>
<path d="M317.042 174.843C317.414 166.551 319.889 121.5 319.889 121.747C319.518 124.594 319.023 125.46 318.404 126.326C314.072 133.134 304.789 144.149 303.057 143.159C301.695 142.169 307.884 129.421 312.463 122.49C314.072 119.891 315.928 118.282 317.29 117.292C318.032 118.529 319.27 119.519 320.508 119.891C320.755 120.014 321.745 120.138 321.993 120.138C322.612 120.138 323.354 120.014 323.602 119.891C323.602 119.891 326.449 168.16 326.82 174.843C339.073 174.843 369.396 185.487 369.396 188.334V190.562C369.396 191.057 369.024 191.428 368.529 191.428H275.704C275.209 191.428 274.838 191.057 274.838 190.562V188.334C274.838 184.992 305.656 174.843 317.042 174.843Z" fill="#82B39C"/>
<path d="M271.007 135.265C270.496 135.521 270.071 135.946 269.645 136.371C268.794 135.691 267.688 134.499 266.752 132.457C264.199 127.437 260.795 118.161 261.987 117.566C263.178 116.97 268.709 125.139 271.262 130.16C272.198 132.117 272.708 133.563 272.708 134.84C272.028 134.84 271.517 135.01 271.007 135.265Z" fill="#82B39C"/>
<path d="M280.878 136.457C286.494 136.797 296.195 138.329 296.11 139.775C296.024 141.307 286.239 141.732 280.622 141.562C278.41 141.392 276.963 140.967 275.857 140.456C276.453 139.52 276.538 138.244 276.027 137.137C277.048 136.627 278.58 136.371 280.878 136.457Z" fill="#82B39C"/>
<path d="M272.624 140.881C271.355 140.881 270.327 139.853 270.327 138.584C270.327 137.315 271.355 136.286 272.624 136.286C273.893 136.286 274.922 137.315 274.922 138.584C274.922 139.853 273.893 140.881 272.624 140.881Z" fill="#82B39C"/>
<path d="M294.578 122.926L273.474 123.437C273.474 123.437 273.474 123.437 273.389 123.437C272.879 123.437 272.538 123.012 272.538 122.586C272.538 122.161 272.964 121.735 273.389 121.735L294.493 122.246C294.663 122.246 294.833 122.416 294.833 122.586C294.918 122.756 294.748 122.926 294.578 122.926Z" fill="#82B39C"/>
<path d="M298.067 126.5L276.964 127.011C276.964 127.011 276.964 127.011 276.879 127.011C276.368 127.011 276.028 126.586 276.028 126.16C276.028 125.735 276.453 125.309 276.879 125.309L297.982 125.82C298.153 125.82 298.323 125.99 298.323 126.16C298.493 126.33 298.238 126.5 298.067 126.5Z" fill="#82B39C"/>
<path d="M301.641 129.99L280.538 130.5C280.027 130.5 279.687 130.075 279.687 129.649C279.687 129.224 280.112 128.798 280.538 128.798L301.641 129.309C301.811 129.309 301.981 129.479 301.981 129.649C301.981 129.819 301.811 129.99 301.641 129.99Z" fill="#82B39C"/>
<path d="M269.39 180.025C269.645 174.324 271.347 143.349 271.347 143.519C271.092 145.477 270.752 146.072 270.326 146.668C267.348 151.348 260.966 158.922 259.774 158.241C258.838 157.56 263.093 148.795 266.242 144.03C267.348 142.243 268.624 141.137 269.56 140.456C270.071 141.307 270.922 141.988 271.773 142.243C271.943 142.328 272.624 142.413 272.794 142.413C273.219 142.413 273.73 142.328 273.9 142.243C273.9 142.243 275.857 175.43 276.113 180.025C284.537 180.025 305.385 187.343 305.385 189.301V190.832C305.385 191.173 305.13 191.428 304.79 191.428H240.968C240.628 191.428 240.373 191.173 240.373 190.832V189.301C240.373 187.003 261.561 180.025 269.39 180.025Z" fill="#82B39C"/>
</g>
<g clip-path="url(#clip1)">
<path fill-rule="evenodd" clip-rule="evenodd" d="M143.583 134.904H144.046V135.368C143.738 135.677 143.583 135.987 143.583 136.296C143.274 136.296 142.657 136.451 141.73 136.761H139.878C139.878 136.451 138.334 135.368 135.246 133.511C132.158 131.344 129.379 129.642 126.909 128.404C124.13 127.475 121.66 126.392 119.498 125.154C117.337 123.916 115.021 122.369 112.551 120.512C109.772 118.655 107.456 117.417 105.603 116.798C103.442 116.179 101.743 114.941 100.508 113.083L98.6555 110.298V109.834H98.1923V109.369H97.7292V108.905H97.266V108.441H96.3397V107.977H95.8765V107.512H95.4133L95.8765 112.155C96.1853 114.941 96.6485 116.643 97.266 117.262C98.1923 117.571 99.2731 118.036 100.508 118.655C102.052 119.274 103.133 120.357 103.75 121.904C104.677 123.452 105.603 124.38 106.529 124.69C107.147 124.999 107.61 125.154 107.919 125.154H108.382L108.845 125.618L109.308 126.083H109.772V126.547H110.235V127.011H109.308L107.456 127.475C106.221 127.785 105.14 127.94 104.214 127.94C103.287 127.94 101.589 128.094 99.1187 128.404L95.8765 128.868L95.4133 128.404L94.9501 127.94H94.487V127.011C94.487 126.392 94.9501 125.773 95.8765 125.154L97.266 124.226V123.297H96.8028L96.3397 122.833C96.0309 122.523 95.1045 122.059 93.5606 121.44C92.0167 120.821 90.936 119.119 90.3184 116.333L88.9289 112.619V112.155H88.4657L88.0026 111.691H87.0762V112.619L86.6131 113.083L86.1499 114.012L83.834 122.369C82.2901 128.249 80.283 132.892 77.8128 136.296C75.6513 139.391 73.4899 142.641 71.3284 146.046C69.4757 149.141 68.2406 151.462 67.623 153.01C67.0055 154.248 66.6967 155.331 66.6967 156.259V157.652L66.2335 158.117L65.7703 158.581H64.844V156.259C64.844 154.712 65.4615 152.391 66.6967 149.296C67.9318 145.891 69.6301 142.486 71.7916 139.082C73.9531 135.677 75.6513 132.273 76.8865 128.868L78.7391 123.297V120.512H75.9601L75.4969 120.976L75.0338 121.44H74.5706V121.904H74.1074L72.7179 125.154C71.7916 127.321 70.0933 131.654 67.623 138.153C65.1528 144.653 62.2192 150.998 58.8228 157.188C55.4262 163.069 51.8752 168.176 48.1698 172.509C44.7733 176.223 41.6854 179.008 38.9064 180.865C36.1274 182.722 33.0394 184.27 29.643 185.508C26.5551 186.746 24.857 187.52 24.5481 187.829L24.0849 188.293H23.1586V188.758H22.6954V189.222H21.3059V189.686V188.293H21.7691V187.829H22.2322V187.365H22.6954V186.901H23.1586V186.436H23.6217V185.972C23.9305 185.972 27.0183 183.96 32.8852 179.937C39.0606 175.604 42.9207 172.663 44.4645 171.116C46.3171 169.568 48.4786 166.628 50.9489 162.295C53.4191 157.962 55.5806 153.938 57.4333 150.224C58.6684 146.82 58.2052 143.879 56.0437 141.403C53.5735 138.618 51.5664 137.225 50.0225 137.225C48.7874 137.225 47.3979 137.534 45.854 138.153C44.3101 138.772 43.0749 140.01 42.1486 141.867C41.2223 143.725 39.5239 148.677 37.0537 156.724L33.3483 168.33L32.8852 168.794L32.422 169.723V171.116H31.9588V171.58H31.4957V169.723L31.9588 168.33L32.422 166.937V165.545H31.9588V166.009H31.4957V166.473L31.0325 166.937L30.5693 167.402V167.866H30.1061V168.33H29.643L27.7903 171.116C26.2464 173.282 25.4744 174.366 25.4744 174.366H25.0113V174.83H24.5481V175.294H22.6954L22.2322 175.758L21.7691 176.223H20.8427V175.758H21.3059V174.83H21.7691V174.366H22.2322V173.437L22.6954 172.973C23.0042 172.663 24.5481 169.878 27.3271 164.616C30.1061 159.355 31.8045 155.795 32.422 153.938L33.3483 151.617V149.76H32.8852V149.296H31.9588V149.76H31.4957V150.688H31.0325V151.153H30.5693V152.081L22.2322 166.937C16.6742 176.841 13.5862 182.258 12.9688 183.186L12.0425 184.579V185.044H11.5793V185.508H11.1161V186.436H10.6529V186.901H10.1898V187.829H9.7266V188.293L7.41074 190.15L4.63171 192.936H4.16854V193.4H3.70537V193.864H3.2422V194.329H2.77903V194.793H2.31586L1.85269 195.257L1.38951 195.721H0.926343L0.463171 196.186H0V195.257H0.926343V194.329L1.38951 193.864L1.85269 193.4V192.936H2.31586V192.472C2.62464 192.472 3.70537 191.079 5.55806 188.293C7.41074 185.198 9.7266 180.865 12.5056 175.294L16.6742 167.402L17.1373 166.937L17.6005 166.473V165.545H18.0637V165.08H18.5269V164.616C18.5269 164.307 20.6883 159.819 25.0113 151.153C29.3342 142.486 31.9588 137.535 32.8852 136.296C34.1203 135.058 35.201 134.439 36.1274 134.439C37.3625 134.439 38.4432 133.666 39.3696 132.118C40.2959 130.88 41.6854 128.868 43.5381 126.083C45.3908 123.297 46.6259 121.595 47.2435 120.976L48.633 120.512H49.5593L50.9489 120.976C51.5664 121.595 53.1103 123.452 55.5806 126.547C57.4333 129.642 58.6684 131.654 59.2859 132.582C59.9035 133.201 60.3667 133.511 60.6755 133.511H61.1386V133.975L61.6018 134.439L62.065 134.904V135.368H63.9177V133.975L67.1599 127.011C69.3213 122.369 71.0196 119.273 72.2547 117.726C73.7986 116.488 75.3426 115.095 76.8865 113.548C78.7391 112 81.2094 109.06 84.2972 104.727C87.385 100.394 89.2379 97.9175 89.8553 97.2987C90.7816 96.6797 92.0167 96.0606 93.5606 95.4417C95.1045 95.4417 96.9572 96.2154 99.1187 97.7629C100.971 99.3105 103.133 101.013 105.603 102.87C107.456 105.036 109.463 107.512 111.624 110.298C113.786 113.393 115.947 115.869 118.109 117.726C120.579 119.583 124.284 122.059 129.225 125.154C134.165 128.249 137.716 130.416 139.878 131.654C141.73 133.511 142.811 134.439 143.12 134.439C143.429 134.439 143.583 134.594 143.583 134.904Z" fill="#82B39C"/>
</g>
</g>
<defs>
<clipPath id="clip0">
<rect width="274.837" height="191.767" fill="white" transform="translate(105.164)"/>
</clipPath>
<clipPath id="clip1">
<rect width="144.046" height="100.744" fill="white" transform="translate(0 95.4417)"/>
</clipPath>
</defs>
</svg>
