<svg width="24" height="24" viewBox="0 0 24 24" fill="none" xmlns="http://www.w3.org/2000/svg">
<path d="M22.56 7.95676L17.28 1.53514C17.0111 1.20811 16.6444 1 16.2533 1H7.77111C7.38 1 7.01333 1.17838 6.74444 1.53514L1.44 7.95676C1.14667 8.28378 1 8.75946 1 9.23514V9.32432C1 10.2162 1.53778 10.9297 2.22222 11.0784V21.2162C2.22222 22.1973 2.88222 23 3.68889 23H10.0444H13.9556H20.3111C21.1178 23 21.7778 22.1973 21.7778 21.2162V11.0784C22.4622 10.9297 23 10.2162 23 9.32432V9.23514C23 8.75946 22.8533 8.28378 22.56 7.95676ZM10.5333 21.8108V14.0811H13.4667V21.8108H10.5333ZM20.8 21.2162C20.8 21.5432 20.58 21.8108 20.3111 21.8108H14.4444V13.4865C14.4444 13.1595 14.2244 12.8919 13.9556 12.8919H10.0444C9.77556 12.8919 9.55556 13.1595 9.55556 13.4865V21.8108H3.68889C3.42 21.8108 3.2 21.5432 3.2 21.2162V11.1081H20.8V21.2162ZM22.0222 9.32432C22.0222 9.65135 21.8022 9.91892 21.5333 9.91892H21.2889H2.71111H2.46667C2.19778 9.91892 1.97778 9.65135 1.97778 9.32432V9.23514C1.97778 9.08649 2.02667 8.93784 2.12444 8.81892L7.42889 2.36757C7.52667 2.24865 7.64889 2.18919 7.77111 2.18919H16.2533C16.3756 2.18919 16.4978 2.24865 16.5956 2.36757L21.9 8.81892C21.9978 8.93784 22.0467 9.08649 22.0467 9.23514V9.32432H22.0222ZM16.4 17.0541H18.8444C19.1133 17.0541 19.3333 16.7865 19.3333 16.4595V13.4865C19.3333 13.1595 19.1133 12.8919 18.8444 12.8919H16.4C16.1311 12.8919 15.9111 13.1595 15.9111 13.4865V16.4595C15.9111 16.7865 16.1311 17.0541 16.4 17.0541ZM16.8889 14.0811H18.3556V15.8649H16.8889V14.0811ZM5.15556 17.0541H7.6C7.86889 17.0541 8.08889 16.7865 8.08889 16.4595V13.4865C8.08889 13.1595 7.86889 12.8919 7.6 12.8919H5.15556C4.88667 12.8919 4.66667 13.1595 4.66667 13.4865V16.4595C4.66667 16.7865 4.88667 17.0541 5.15556 17.0541ZM5.64444 14.0811H7.11111V15.8649H5.64444V14.0811Z" fill="#4F4F4F"/>
</svg>
