<svg width="22" height="22" viewBox="0 0 22 22" fill="none" xmlns="http://www.w3.org/2000/svg">
<path d="M9.37907 20.4286H22V22H0V20.4286H6.33443L6.88521 11.6168C7.19321 11.7174 7.51614 11.7857 7.85714 11.7857C8.19814 11.7857 8.52107 11.7174 8.82907 11.6168L9.37907 20.4286ZM11.2821 12.2438C10.6378 11.9012 10.1554 11.5084 9.77507 11.1163C10.4634 10.582 10.9175 9.7735 10.9788 8.85029C11.5162 8.94614 12.1126 9.12607 12.7569 9.46864C15.1706 10.7517 15.488 12.7003 15.488 12.7003C15.488 12.7003 13.6958 13.5269 11.2821 12.2438ZM6.57171 5.7805C6.40514 5.26271 6.28571 4.65457 6.28571 3.92857C6.28571 1.19507 7.85714 0 7.85714 0C7.85714 0 9.42857 1.19507 9.42857 3.92857C9.42857 4.65457 9.30914 5.26271 9.14257 5.7805C8.74971 5.60371 8.316 5.5 7.85714 5.5C7.39829 5.5 6.96457 5.60371 6.57171 5.7805ZM6.28571 8.64286C6.28571 7.77464 6.98893 7.07143 7.85714 7.07143C8.72536 7.07143 9.42857 7.77464 9.42857 8.64286C9.42857 9.51107 8.72536 10.2143 7.85714 10.2143C6.98893 10.2143 6.28571 9.51107 6.28571 8.64286ZM18.0714 6.28571H22V7.85714H18.0714C17.6377 7.85714 17.2857 8.20993 17.2857 8.64286C17.2857 9.07579 17.6377 9.42857 18.0714 9.42857C18.5059 9.42857 18.8571 9.78057 18.8571 10.2143C18.8571 10.648 18.5059 11 18.0714 11C16.7719 11 15.7143 9.94243 15.7143 8.64286C15.7143 7.34329 16.7719 6.28571 18.0714 6.28571ZM22 3.14286V4.71429H15.7143C14.4147 4.71429 13.3571 3.65671 13.3571 2.35714C13.3571 1.05757 14.4147 0 15.7143 0C16.1488 0 16.5 0.352 16.5 0.785714C16.5 1.21943 16.1488 1.57143 15.7143 1.57143C15.2806 1.57143 14.9286 1.92421 14.9286 2.35714C14.9286 2.79007 15.2806 3.14286 15.7143 3.14286H22ZM0.226286 12.7003C0.226286 12.7003 0.543714 10.7517 2.95743 9.46864C3.60171 9.12607 4.19807 8.94614 4.7355 8.85029C4.79679 9.7735 5.25093 10.582 5.93921 11.1163C5.55893 11.5076 5.0765 11.9012 4.43221 12.2438C2.0185 13.5269 0.226286 12.7003 0.226286 12.7003Z" fill="#4F4F4F"/>
</svg>
