<svg width="50" height="50" viewBox="0 0 50 50" fill="none" xmlns="http://www.w3.org/2000/svg">
<g clip-path="url(#clip0)">
<path d="M6.72804 1.41535C3.35108 1.41535 1.45264 3.16126 1.45264 6.72867V43.5033C1.45264 46.8402 3.15942 48.5873 6.53368 48.5873H43.4638C46.8383 48.5873 48.5477 46.9272 48.5477 43.5033V6.72867C48.5477 3.24827 46.8383 1.41535 43.3579 1.41535C43.3579 1.41535 6.71644 1.40367 6.72804 1.41535Z" fill="#015B90" stroke="#015B90" stroke-width="3.408"/>
<path d="M25.2143 8.38672C21.9255 8.38672 17.3835 9.32642 15.5041 10.1095C13.6247 10.8926 12.3718 11.6757 11.9803 13.6334L10.5708 24.4864V39.4411H12.9983V41.7862C12.9983 44.6457 17.1827 44.6457 17.1827 41.7862V39.4411H24.908H24.9325H32.9641V41.7862C32.9641 44.6457 37.1486 44.6457 37.1486 41.7862V39.4411H39.576V24.4864L38.1666 13.6334C37.7751 11.6757 36.5221 10.8926 34.6427 10.1095C32.7633 9.32642 28.2213 8.38672 24.9325 8.38672" fill="white"/>
<path d="M35.0546 34.753C36.1631 34.753 37.0618 33.8541 37.0618 32.7456C37.0618 31.6371 36.1631 30.7383 35.0546 30.7383C33.9461 30.7383 33.0474 31.6371 33.0474 32.7456C33.0474 33.8541 33.9461 34.753 35.0546 34.753Z" fill="#015B90"/>
<path d="M15.0922 34.753C13.9837 34.753 13.085 33.8541 13.085 32.7456C13.085 31.6371 13.9837 30.7383 15.0922 30.7383C16.2007 30.7383 17.0994 31.6371 17.0994 32.7456C17.0994 33.8541 16.2007 34.753 15.0922 34.753Z" fill="#015B90"/>
<path d="M24.9179 12.8908H19.1061C17.9314 12.8908 17.9314 11.1289 19.1061 11.1289H24.9322H31.0401C32.2148 11.1289 32.2148 12.8908 31.0401 12.8908H24.9179Z" fill="#015B90"/>
<path d="M24.918 14.668H15.9395C14.6987 14.668 14.3745 15.2985 14.2238 16.2548L13.1268 24.1264C13.0244 24.8809 13.2427 25.6298 14.2851 25.6298H24.9323H35.8614C36.9038 25.6298 37.1221 24.8809 37.0197 24.1264L35.9227 16.2548C35.772 15.2985 35.4479 14.668 34.207 14.668H24.918Z" fill="#015B90"/>
</g>
<defs>
<clipPath id="clip0">
<rect width="50" height="50" fill="white"/>
</clipPath>
</defs>
</svg>
