<svg width="21" height="22" viewBox="0 0 21 22" fill="none" xmlns="http://www.w3.org/2000/svg">
<path d="M10.5 0.5C4.70156 0.5 0 5.20156 0 11C0 16.7984 4.70156 21.5 10.5 21.5C16.2984 21.5 21 16.7984 21 11C21 5.20156 16.2984 0.5 10.5 0.5ZM15.0352 7.57109L10.0992 14.4148C10.0302 14.5111 9.93928 14.5896 9.83392 14.6437C9.72856 14.6978 9.61181 14.7261 9.49336 14.7261C9.37491 14.7261 9.25816 14.6978 9.1528 14.6437C9.04743 14.5896 8.95649 14.5111 8.8875 14.4148L5.96484 10.3648C5.87578 10.2406 5.96484 10.0672 6.11719 10.0672H7.21641C7.45547 10.0672 7.68281 10.182 7.82344 10.3789L9.49219 12.6945L13.1766 7.58516C13.3172 7.39062 13.5422 7.27344 13.7836 7.27344H14.8828C15.0352 7.27344 15.1242 7.44688 15.0352 7.57109Z" fill="#056839"/>
</svg>
