<svg width="45" height="44" viewBox="0 0 45 44" fill="none" xmlns="http://www.w3.org/2000/svg">
<path d="M19.2581 40.8571H44.5V44H0.5V40.8571H13.1689L14.2704 23.2336C14.8864 23.4347 15.5323 23.5714 16.2143 23.5714C16.8963 23.5714 17.5421 23.4347 18.1581 23.2336L19.2581 40.8571ZM23.0641 24.4876C21.7756 23.8024 20.8107 23.0167 20.0501 22.2326C21.4267 21.164 22.335 19.547 22.4576 17.7006C23.5324 17.8923 24.7251 18.2521 26.0137 18.9373C30.8411 21.5034 31.476 25.4006 31.476 25.4006C31.476 25.4006 27.8916 27.0537 23.0641 24.4876ZM13.6434 11.561C13.3103 10.5254 13.0714 9.30914 13.0714 7.85714C13.0714 2.39014 16.2143 0 16.2143 0C16.2143 0 19.3571 2.39014 19.3571 7.85714C19.3571 9.30914 19.1183 10.5254 18.7851 11.561C17.9994 11.2074 17.132 11 16.2143 11C15.2966 11 14.4291 11.2074 13.6434 11.561ZM13.0714 17.2857C13.0714 15.5493 14.4779 14.1429 16.2143 14.1429C17.9507 14.1429 19.3571 15.5493 19.3571 17.2857C19.3571 19.0221 17.9507 20.4286 16.2143 20.4286C14.4779 20.4286 13.0714 19.0221 13.0714 17.2857ZM36.6429 12.5714H44.5V15.7143H36.6429C35.7754 15.7143 35.0714 16.4199 35.0714 17.2857C35.0714 18.1516 35.7754 18.8571 36.6429 18.8571C37.5119 18.8571 38.2143 19.5611 38.2143 20.4286C38.2143 21.296 37.5119 22 36.6429 22C34.0437 22 31.9286 19.8849 31.9286 17.2857C31.9286 14.6866 34.0437 12.5714 36.6429 12.5714ZM44.5 6.28571V9.42857H31.9286C29.3294 9.42857 27.2143 7.31343 27.2143 4.71429C27.2143 2.11514 29.3294 0 31.9286 0C32.7976 0 33.5 0.704 33.5 1.57143C33.5 2.43886 32.7976 3.14286 31.9286 3.14286C31.0611 3.14286 30.3571 3.84843 30.3571 4.71429C30.3571 5.58014 31.0611 6.28571 31.9286 6.28571H44.5ZM0.952572 25.4006C0.952572 25.4006 1.58743 21.5034 6.41486 18.9373C7.70343 18.2521 8.89614 17.8923 9.971 17.7006C10.0936 19.547 11.0019 21.164 12.3784 22.2326C11.6179 23.0151 10.653 23.8024 9.36443 24.4876C4.537 27.0537 0.952572 25.4006 0.952572 25.4006Z" fill="#056839"/>
</svg>
